inDegrees=no
num_controls=7
num_derivatives=13
num_iterations=80
num_multipliers=7
num_parameters=0
num_slacks=7
num_states=26
objective=4.772139
objective_accelerations=0.458427
objective_balance=0.017774
objective_effort=0.137481
objective_height=4.131773
objective_ligament=0.026684
solver_duration=972.428983
status=Solve_Succeeded
success=true
DataType=double
version=3
OpenSimVersion=4.4-2022-07-23-0e9fedc
endheader
time	/jointset/ground_pelvis/pelvis_tilt/value	/jointset/ground_pelvis/pelvis_tx/value	/jointset/ground_pelvis/pelvis_ty/value	/jointset/hip_l/hip_flexion_l/value	/jointset/hip_l/hip_adduction_l/value	/jointset/hip_l/hip_rotation_l/value	/jointset/back/lumbar_extension/value	/jointset/patellofemoral_l/patellar_flexion_l/value	/jointset/knee_l/knee_flexion_l/value	/jointset/knee_l/knee_adduction_l/value	/jointset/knee_l/knee_rotation_l/value	/jointset/ankle_l/ankle_angle_l/value	/jointset/subtalar_l/subtalar_angle_l/value	/jointset/ground_pelvis/pelvis_tilt/speed	/jointset/ground_pelvis/pelvis_tx/speed	/jointset/ground_pelvis/pelvis_ty/speed	/jointset/hip_l/hip_flexion_l/speed	/jointset/hip_l/hip_adduction_l/speed	/jointset/hip_l/hip_rotation_l/speed	/jointset/back/lumbar_extension/speed	/jointset/patellofemoral_l/patellar_flexion_l/speed	/jointset/knee_l/knee_flexion_l/speed	/jointset/knee_l/knee_adduction_l/speed	/jointset/knee_l/knee_rotation_l/speed	/jointset/ankle_l/ankle_angle_l/speed	/jointset/subtalar_l/subtalar_angle_l/speed	/forceset/tau_hip_flexion_l	/forceset/tau_hip_adduction_l	/forceset/tau_hip_rotation_l	/forceset/tau_knee_flexion_l	/forceset/tau_ankle_angle_l	/forceset/tau_subtalar_angle_l	/forceset/tau_lumbar_extension	lambda_cid13_p0	lambda_cid13_p1	lambda_cid13_p2	lambda_cid13_p3	lambda_cid13_p4	lambda_cid13_p5	lambda_cid14_p0	/jointset/ground_pelvis/pelvis_tilt/accel	/jointset/ground_pelvis/pelvis_tx/accel	/jointset/ground_pelvis/pelvis_ty/accel	/jointset/hip_l/hip_flexion_l/accel	/jointset/hip_l/hip_adduction_l/accel	/jointset/hip_l/hip_rotation_l/accel	/jointset/back/lumbar_extension/accel	/jointset/patellofemoral_l/patellar_flexion_l/accel	/jointset/knee_l/knee_flexion_l/accel	/jointset/knee_l/knee_adduction_l/accel	/jointset/knee_l/knee_rotation_l/accel	/jointset/ankle_l/ankle_angle_l/accel	/jointset/subtalar_l/subtalar_angle_l/accel	gamma_cid13_p0	gamma_cid13_p1	gamma_cid13_p2	gamma_cid13_p3	gamma_cid13_p4	gamma_cid13_p5	gamma_cid14_p0
0.5	-0.1282988514435903	0.06726644365627592	0.8117673637451374	0.7505543378869506	-0.3787384434564972	-0.02486845034388043	-0.3889635805334494	0.8189418124173682	0.8189418124174076	-0.08847943785563847	-0.1745081748489633	0.3112319873648983	0.1418744578377869	-0.5158242227753815	-0.1135748858555762	-0.354345441181533	1.754850347405627	0.008987842827828973	0.5131426055245496	-0.3286732332128622	1.626374212773649	1.626374212773651	0.1874232504639314	0.000676501832114774	0.5273884382925454	0.2174054977243686	-0.07109854472674598	0.0411828764648752	0.01099548364427103	-0.1928263965170806	-0.01768320008566198	-0.002798089014475254	0.09657456607739104	-31.79373455847667	8.149896604301226	-3.142722051462476	4.617216069099504	-447.0275585591053	-54.18860259706421	-10.60010865031546	0.02655138828862088	0.1409161597319943	-0.3099445716831773	-0.7269413951937623	0.1281891402876547	-0.5337103066640293	1.108071621724259	-1.295789077354188	-1.29578907735419	-0.2774206499004352	0.05056578168527719	-0.739811138482908	0.1156424078701443	-1.774447856782206e-07	-2.386951410509245e-06	1.735591999878694e-06	-2.115921891041987e-07	-4.184896939287248e-07	-2.113547258705044e-06	-3.851800822339061e-07
0.51	-0.13345451955896	0.06613801005805459	0.8082092529867605	0.7680628555437972	-0.3786436489590025	-0.01976479617496852	-0.3921951110773367	0.8351377660207919	0.8351377660209085	-0.08662165270026781	-0.1745013137698955	0.31646763596237	0.1440517577158163	-0.5152450029241362	-0.1120897164017915	-0.3571972251706389	1.746603766749229	0.009962094853220334	0.5075275956172862	-0.3175907535584208	1.612577145734493	1.612577145734494	0.1841298737880507	0.000682891519257438	0.5196725114168911	0.2180103160414201	-0.0744280701331904	0.04268222606877212	0.01049336830093718	-0.1945023798922256	-0.01920795010025122	-0.001885716184390627	0.0992296076612854	-32.34844819683041	7.947209771548087	-3.220555210077102	4.645762775931097	-449.1536824920188	-54.2792848577988	-9.927717778674854	0.08324446380628556	0.1555951781544611	-0.2609551655683869	-0.9109552833967698	0.08061077633400336	-0.5848450424621493	1.114654438556519	-1.457494397197226	-1.457494397197145	-0.3561454738741539	-0.02599857999178123	-0.797890295318085	0.02643002940890309	-1.730991786735677e-07	-2.206201961693586e-06	1.732940024952035e-06	-1.906101563859377e-07	-4.076262127002591e-07	-1.99966634519203e-06	-3.714198716204699e-07
0.52	-0.1386024680397949	0.06502508372236163	0.8046249924178827	0.7854814196175716	-0.3785393984327133	-0.01471918184708617	-0.3953145531644273	0.851188583177904	0.8511885831779532	-0.08479697117129485	-0.1744947236222722	0.3216240439244463	0.1462338114741739	-0.5142802958622575	-0.1104734333499054	-0.3595754032816039	1.736859630791511	0.0108790485853962	0.501534637321804	-0.3062555418538304	1.597346923495305	1.597346923495305	0.1808025252144661	0.0006223155175122288	0.5115403112127743	0.2183562737899026	-0.0777575955394607	0.0441815756725455	0.009991252956866446	-0.1961783632673608	-0.02073270011490303	-0.0009733433544876821	0.1018846492453725	-32.9027022439249	7.73732963907829	-3.289116332823146	4.660838879853987	-451.2869019536428	-54.43547949835384	-9.259578282750548	0.1036488304158809	0.1671388793520017	-0.215223396055023	-1.026452455457536	0.1167294816441554	-0.6092999843083775	1.158618031754251	-1.582420117360554	-1.582420117360569	-0.2842150294414416	0.03717264390656169	-0.8230658041757877	0.06387029415567916	-1.686018354863724e-07	-2.060623179093444e-06	1.72360539541124e-06	-1.739894618679444e-07	-3.962496056560487e-07	-1.900539368837635e-06	-3.596688466213394e-07
0.53	-0.1437388806972258	0.06392891772163987	0.8010193333269773	0.8027952901583092	-0.3784262213243457	-0.009734833974312311	-0.3983194106930685	0.8670801405726954	0.8670801405727111	-0.08300590457688571	-0.1744887113414512	0.3266971276134145	0.1484180465686518	-0.5129360935589483	-0.1087430445549189	-0.3614746084715242	1.725675329672902	0.01174835366878712	0.4952946713076765	-0.294682339340485	1.580739583629766	1.580739583629767	0.1773992545298703	0.0005803883633499459	0.5030119296895819	0.2184457052374304	-0.08114441119699171	0.045656290929093	0.009490214800510708	-0.1977564918562714	-0.02243888592456789	-0.0001846926854601708	0.104552250277094	-33.53057880022351	7.596129395003428	-3.370976596716891	4.773619847384986	-453.4712094307117	-54.46636660326432	-8.597050169775221	0.1597066929038408	0.1784641629657793	-0.1650761711684268	-1.200315692524758	0.07071195267871547	-0.6377176332217241	1.161715041498229	-1.7335659966753	-1.73356599667487	-0.3703409440491944	-0.02458703449339555	-0.8774799349259977	-0.02516788877709603	-1.5927674240028e-07	-2.038214515879564e-06	1.621746792532292e-06	-1.779023414632491e-07	-3.700673420045864e-07	-1.842183431542711e-06	-3.45191325583128e-07
0.54	-0.1488598711791313	0.06285055066554678	0.79739712076603	0.8199901383373717	-0.37830461497894	-0.00481416030634026	-0.4012075274605003	0.8827988895537446	0.8827988895536993	-0.08124926226048906	-0.1744830606599607	0.3316829763654442	0.1506018464858398	-0.5111958607509413	-0.1069136444241725	-0.3628860972898295	1.713055158455846	0.012564895991872	0.4887997963632478	-0.2829073896121481	1.562785240743241	1.562785240743244	0.1739176696020445	0.0005499956325116641	0.4940933238249832	0.2182692383318103	-0.08453122685429872	0.04713100618559848	0.008989176644269199	-0.1993346204451814	-0.02414507173427358	0.0006039579834858768	0.1072198513090293	-34.15843063221931	7.447849230885517	-3.44362562199422	4.874144678378738	-455.6676310123696	-54.56199520891172	-7.943127864528853	0.1828549313559468	0.1869411465037478	-0.1176801217320545	-1.313626475147038	0.10617692958262	-0.6602817703690936	1.198967474752741	-1.851820721557457	-1.851820721557459	-0.2998778780876659	0.03947952857041052	-0.9011106724573389	0.01069062352553621	-1.44610309000514e-07	-2.152079176241975e-06	1.417521240428152e-06	-2.045332179498627e-07	-3.275043518940368e-07	-1.828935877888052e-06	-3.276972557357205e-07
0.55	-0.1539615899018361	0.0617909842803402	0.7937632653089155	0.8370517355172503	-0.3781750264044287	3.948771842774242e-05	-0.403976991268129	0.8983314868577718	0.8983314868576905	-0.07952705372306623	-0.1744781675579681	0.3365778205726867	0.1527826689816496	-0.5090897672103842	-0.1049810271065798	-0.3638001513536792	1.699029804618439	0.01334402003023203	0.4818903910478415	-0.2709638996819992	1.543515462048111	1.543515462048116	0.1705134763036008	0.0004310396379582868	0.4848211558560018	0.2178500447870096	-0.08767815857256668	0.04831068629733222	0.008470513599105093	-0.2013642806656901	-0.02526274939989532	0.001312545871813245	0.1097105950575947	-34.60620188285193	7.320248426010045	-3.539491231714379	4.836497726182841	-457.9268133162038	-54.6845095602338	-7.316644205508984	0.2331840123907747	0.1991690386013595	-0.06560248949898237	-1.482182819679021	0.0624242851099271	-0.7124861829962549	1.195260587125393	-1.997306513880558	-1.997306513880051	-0.3625477124185982	-0.03705660253260599	-0.9485165542961782	-0.07481282892902347	-1.349212892836364e-07	-2.128887883396383e-06	1.311454477008796e-06	-2.082863314657383e-07	-3.012487718930108e-07	-1.767032854402095e-06	-3.129206137407389e-07
0.5600000000000001	-0.1590405081997695	0.06075129347115256	0.7901228024230039	0.8539660405624304	-0.3780379177606994	0.004822798435861223	-0.4066263760094596	0.9136648363607403	0.9136648363606915	-0.07783925864970948	-0.1744743587037647	0.3413782937612035	0.1549579818449228	-0.5066357757903323	-0.1029385292203858	-0.3642075830490822	1.683596731515421	0.01406890983448986	0.4747323348976095	-0.2588915763526258	1.522935680537393	1.522935680537399	0.1670349767373137	0.0003331460808032178	0.4752191200799094	0.2171673118243575	-0.09082509029060729	0.04949036640904952	0.007951850555016246	-0.2033939408862212	-0.02638042706555553	0.002021133760083814	0.1122013388063685	-35.05287748393184	7.183156720276386	-3.623221822693465	4.784437252560348	-460.1865408416024	-54.86651263110667	-6.723252767412586	0.2524345072554346	0.208917260223808	-0.01635564804273723	-1.595170328269417	0.09533008276199112	-0.7100119373344982	1.22473415459779	-2.113821284675075	-2.113821284675072	-0.3147391316564886	0.04369201604946454	-0.9670842338798308	-0.0420172600451385	-1.312051659862246e-07	-1.941229446701193e-06	1.323178260011179e-06	-1.84586129416729e-07	-2.945620840234127e-07	-1.646743267118581e-06	-3.014048851686683e-07
0.5700000000000001	-0.164093181519262	0.05973252048693892	0.7864807994043981	0.8707191916807627	-0.3778937693751007	0.009533597307363821	-0.4091544231782304	0.9287860449036598	0.9287860449035615	-0.07618664253276616	-0.174471198424856	0.3460811764810633	0.157125204508411	-0.5038376516321219	-0.1008027085378081	-0.364107089117478	1.666806739780548	0.01475341102103014	0.4673679256548199	-0.2467059956046644	1.501102051909529	1.501102051909537	0.1634971264892782	0.0002874203434930224	0.4653074185597322	0.2162330823289333	-0.09401380853791842	0.05067767680340701	0.007421006173856463	-0.2053023523551069	-0.02769104473192601	0.002601642140308061	0.1146872219746564	-35.57553964541991	7.11619982908935	-3.719510666863931	4.834295250415601	-462.4578849696177	-54.90557441064409	-6.16287601007948	0.3026692463445199	0.2178840984972269	0.03608349097724892	-1.754946547061904	0.05383208029668645	-0.7588638670787664	1.217249304605903	-2.248671093572717	-2.248671093572158	-0.3721999968862635	-0.03024943417193854	-1.010791806099692	-0.1256153859352579	-1.274535729600956e-07	-1.741032060397712e-06	1.341322811450715e-06	-1.587944654292385e-07	-2.890882455530721e-07	-1.518371755015106e-06	-2.899791133185364e-07
0.58	-0.1691160400219592	0.05873549963479562	0.7828423676405505	0.8872976362915643	-0.3777430115888987	0.01416891039659447	-0.4115602586855778	0.9436828096719234	0.9436828096718324	-0.074569183323471	-0.1744688043163443	0.350683426446708	0.1592817869586169	-0.500672812424216	-0.09858810280631936	-0.3634933320972871	1.648655430007087	0.0153907899554034	0.4596351784389183	-0.2344492440682337	1.478046925612444	1.478046925612454	0.1600035952208905	0.0001799119841355575	0.4550925692390301	0.2150392691677446	-0.09720252678487737	0.05186498719795743	0.006890161792620962	-0.2072107638239104	-0.02900166239825703	0.003182150520830888	0.1171731051432265	-36.09764789820888	7.040397997521146	-3.804396801537379	4.870529477218909	-464.736715916809	-55.00270873875153	-5.63521452002574	0.3257775171949088	0.2246742700058392	0.0862969696746012	-1.867433935987028	0.08590563232843144	-0.7836795319569689	1.238968312291796	-2.358120818519247	-2.358120818519288	-0.3058753357270716	0.03133549163972029	-1.027713793985043	-0.09393399319830743	-1.236557867988931e-07	-1.524504879255532e-06	1.367829293878172e-06	-1.302790370567495e-07	-2.851939318817644e-07	-1.379474945471683e-06	-2.786704944086041e-07
